<mxfile host="65bd71144e" modified="2023-04-02T15:23:08.210Z" agent="Mozilla/5.0 (Macintosh; Intel Mac OS X 12_4_0) AppleWebKit/537.36 (KHTML, like Gecko) Code/1.75.1 Chrome/102.0.5005.194 Electron/19.1.9 Safari/537.36" etag="nbMb3eIcbZAMxG5duVsT" version="21.1.2" type="embed">
    <diagram id="MRrzpHvAQg33kPX_Fjlm" name="Page-1">
        <mxGraphModel dx="1060" dy="848" grid="0" gridSize="10" guides="1" tooltips="1" connect="1" arrows="1" fold="1" page="1" pageScale="1" pageWidth="827" pageHeight="1169" math="0" shadow="0">
            <root>
                <mxCell id="0"/>
                <mxCell id="1" parent="0"/>
                <mxCell id="54" value="Zulassung von Patienten, Kliniken und Ärzten" style="rounded=0;whiteSpace=wrap;html=1;fillColor=none;dashed=1;labelPosition=center;verticalLabelPosition=top;align=left;verticalAlign=bottom;" parent="1" vertex="1">
                    <mxGeometry x="480" y="320" width="314" height="530" as="geometry"/>
                </mxCell>
                <mxCell id="53" value="Zulassung von unabhängigen Prüfern" style="rounded=0;whiteSpace=wrap;html=1;fillColor=none;dashed=1;labelPosition=center;verticalLabelPosition=top;align=left;verticalAlign=bottom;" parent="1" vertex="1">
                    <mxGeometry x="44" y="330" width="309" height="507" as="geometry"/>
                </mxCell>
                <mxCell id="48" style="edgeStyle=none;html=1;exitX=0.5;exitY=1;exitDx=0;exitDy=0;entryX=1;entryY=0.5;entryDx=0;entryDy=0;rounded=0;" parent="1" source="2" target="32" edge="1">
                    <mxGeometry relative="1" as="geometry">
                        <Array as="points">
                            <mxPoint x="702" y="990"/>
                        </Array>
                    </mxGeometry>
                </mxCell>
                <mxCell id="49" value="Details der Verifikation&lt;br&gt;auf der Blockchain" style="edgeLabel;html=1;align=center;verticalAlign=middle;resizable=0;points=[];" parent="48" vertex="1" connectable="0">
                    <mxGeometry x="-0.4464" y="2" relative="1" as="geometry">
                        <mxPoint x="-2" y="-4" as="offset"/>
                    </mxGeometry>
                </mxCell>
                <mxCell id="2" value="Identity {&lt;br&gt;&lt;br&gt;uint Id;&lt;br&gt;uint verified_by;&lt;br&gt;bool activ;&lt;br&gt;string Hash;&lt;br&gt;string public_key;&lt;br&gt;address identity_address;&lt;br&gt;bytes32 role;&lt;br&gt;&lt;br&gt;}" style="rounded=0;whiteSpace=wrap;html=1;fillColor=none;align=left;labelPosition=center;verticalLabelPosition=middle;verticalAlign=top;" parent="1" vertex="1">
                    <mxGeometry x="627" y="665" width="150" height="170" as="geometry"/>
                </mxCell>
                <mxCell id="13" style="edgeStyle=none;html=1;exitX=0.5;exitY=1;exitDx=0;exitDy=0;entryX=0.5;entryY=0;entryDx=0;entryDy=0;entryPerimeter=0;" parent="1" source="3" target="11" edge="1">
                    <mxGeometry relative="1" as="geometry"/>
                </mxCell>
                <mxCell id="14" value="Prüft KYC Dokumente" style="edgeLabel;html=1;align=center;verticalAlign=middle;resizable=0;points=[];" parent="13" vertex="1" connectable="0">
                    <mxGeometry x="0.1071" y="1" relative="1" as="geometry">
                        <mxPoint as="offset"/>
                    </mxGeometry>
                </mxCell>
                <mxCell id="3" value="Admin" style="shape=actor;whiteSpace=wrap;html=1;labelPosition=center;verticalLabelPosition=top;align=center;verticalAlign=bottom;" parent="1" vertex="1">
                    <mxGeometry x="104" y="360" width="60" height="70" as="geometry"/>
                </mxCell>
                <mxCell id="34" style="edgeStyle=none;html=1;exitX=0.5;exitY=1;exitDx=0;exitDy=0;entryX=0;entryY=0.5;entryDx=0;entryDy=0;rounded=0;" parent="1" source="4" target="32" edge="1">
                    <mxGeometry relative="1" as="geometry">
                        <Array as="points">
                            <mxPoint x="134" y="990"/>
                        </Array>
                    </mxGeometry>
                </mxCell>
                <mxCell id="35" value="Details der Verifikation&lt;br&gt;auf der Blockchain" style="edgeLabel;html=1;align=center;verticalAlign=middle;resizable=0;points=[];" parent="34" vertex="1" connectable="0">
                    <mxGeometry x="-0.0188" relative="1" as="geometry">
                        <mxPoint y="-49" as="offset"/>
                    </mxGeometry>
                </mxCell>
                <mxCell id="4" value="Verifier {&lt;br&gt;&lt;br&gt;uint Id;&lt;br&gt;bool activ;&lt;br&gt;string Hash;&lt;br&gt;string public_key;&lt;br&gt;address verifier_address;&lt;br&gt;&lt;br&gt;}" style="rounded=0;whiteSpace=wrap;html=1;fillColor=none;align=left;labelPosition=center;verticalLabelPosition=middle;verticalAlign=top;" parent="1" vertex="1">
                    <mxGeometry x="59" y="680" width="150" height="140" as="geometry"/>
                </mxCell>
                <mxCell id="37" style="edgeStyle=none;html=1;exitX=0;exitY=0.75;exitDx=0;exitDy=0;entryX=1;entryY=0.5;entryDx=0;entryDy=0;entryPerimeter=0;" parent="1" source="5" target="11" edge="1">
                    <mxGeometry relative="1" as="geometry"/>
                </mxCell>
                <mxCell id="59" value="KYC&lt;br&gt;Dokukemte" style="edgeLabel;html=1;align=center;verticalAlign=middle;resizable=0;points=[];" parent="37" vertex="1" connectable="0">
                    <mxGeometry x="-0.1825" y="3" relative="1" as="geometry">
                        <mxPoint x="-6" as="offset"/>
                    </mxGeometry>
                </mxCell>
                <mxCell id="55" style="edgeStyle=none;html=1;exitX=1;exitY=0.75;exitDx=0;exitDy=0;entryX=0;entryY=0.75;entryDx=0;entryDy=0;rounded=0;" parent="1" source="5" target="38" edge="1">
                    <mxGeometry relative="1" as="geometry">
                        <mxPoint x="410" y="400" as="targetPoint"/>
                        <Array as="points">
                            <mxPoint x="420" y="555"/>
                            <mxPoint x="420" y="413"/>
                        </Array>
                    </mxGeometry>
                </mxCell>
                <mxCell id="56" value="Nach Verifikation&lt;br&gt;durch Admin" style="edgeLabel;html=1;align=center;verticalAlign=middle;resizable=0;points=[];" parent="55" vertex="1" connectable="0">
                    <mxGeometry x="-0.3991" y="1" relative="1" as="geometry">
                        <mxPoint y="1" as="offset"/>
                    </mxGeometry>
                </mxCell>
                <mxCell id="5" value="Unabhängige&lt;br&gt;Prüfer" style="shape=actor;whiteSpace=wrap;html=1;labelPosition=center;verticalLabelPosition=top;align=center;verticalAlign=bottom;" parent="1" vertex="1">
                    <mxGeometry x="278" y="502" width="60" height="70" as="geometry"/>
                </mxCell>
                <mxCell id="8" value="Patient" style="shape=actor;whiteSpace=wrap;html=1;labelPosition=center;verticalLabelPosition=bottom;align=center;verticalAlign=top;" parent="1" vertex="1">
                    <mxGeometry x="511" y="443.5" width="40" height="50" as="geometry"/>
                </mxCell>
                <mxCell id="9" value="Klinik" style="shape=actor;whiteSpace=wrap;html=1;labelPosition=center;verticalLabelPosition=bottom;align=center;verticalAlign=top;" parent="1" vertex="1">
                    <mxGeometry x="511" y="601.5" width="40" height="50" as="geometry"/>
                </mxCell>
                <mxCell id="10" value="Arzt" style="shape=actor;whiteSpace=wrap;html=1;labelPosition=center;verticalLabelPosition=bottom;align=center;verticalAlign=top;" parent="1" vertex="1">
                    <mxGeometry x="511" y="521.5" width="40" height="50" as="geometry"/>
                </mxCell>
                <mxCell id="15" style="edgeStyle=none;html=1;exitX=0.5;exitY=1;exitDx=0;exitDy=0;exitPerimeter=0;entryX=0.5;entryY=0;entryDx=0;entryDy=0;" parent="1" source="11" target="4" edge="1">
                    <mxGeometry relative="1" as="geometry"/>
                </mxCell>
                <mxCell id="16" value="Hash Funktion" style="edgeLabel;html=1;align=center;verticalAlign=middle;resizable=0;points=[];" parent="15" vertex="1" connectable="0">
                    <mxGeometry relative="1" as="geometry">
                        <mxPoint as="offset"/>
                    </mxGeometry>
                </mxCell>
                <mxCell id="11" value="Identitäts-dokumente" style="whiteSpace=wrap;html=1;shape=mxgraph.basic.document;fillColor=none;" parent="1" vertex="1">
                    <mxGeometry x="91" y="500" width="86" height="110" as="geometry"/>
                </mxCell>
                <mxCell id="33" value="" style="group" parent="1" vertex="1" connectable="0">
                    <mxGeometry x="266.5" y="920" width="327" height="160" as="geometry"/>
                </mxCell>
                <mxCell id="29" value="" style="html=1;whiteSpace=wrap;shape=isoCube2;backgroundOutline=1;isoAngle=15;" parent="33" vertex="1">
                    <mxGeometry x="15" y="10" width="90" height="100" as="geometry"/>
                </mxCell>
                <mxCell id="30" value="" style="html=1;whiteSpace=wrap;shape=isoCube2;backgroundOutline=1;isoAngle=15;" parent="33" vertex="1">
                    <mxGeometry x="119" y="10" width="90" height="100" as="geometry"/>
                </mxCell>
                <mxCell id="31" value="" style="html=1;whiteSpace=wrap;shape=isoCube2;backgroundOutline=1;isoAngle=15;" parent="33" vertex="1">
                    <mxGeometry x="222" y="10" width="90" height="100" as="geometry"/>
                </mxCell>
                <mxCell id="32" value="Blockchain" style="rounded=0;whiteSpace=wrap;html=1;fillColor=none;dashed=1;labelPosition=center;verticalLabelPosition=middle;align=center;verticalAlign=bottom;" parent="33" vertex="1">
                    <mxGeometry width="327" height="140" as="geometry"/>
                </mxCell>
                <mxCell id="38" value="Unabhängige&lt;br&gt;Prüfer" style="shape=actor;whiteSpace=wrap;html=1;labelPosition=center;verticalLabelPosition=top;align=center;verticalAlign=bottom;" parent="1" vertex="1">
                    <mxGeometry x="672" y="360" width="60" height="70" as="geometry"/>
                </mxCell>
                <mxCell id="39" style="edgeStyle=none;html=1;exitX=0.5;exitY=1;exitDx=0;exitDy=0;entryX=0.5;entryY=0;entryDx=0;entryDy=0;entryPerimeter=0;" parent="1" target="41" edge="1">
                    <mxGeometry relative="1" as="geometry">
                        <mxPoint x="702" y="430" as="sourcePoint"/>
                    </mxGeometry>
                </mxCell>
                <mxCell id="40" value="Prüft KYC Dokumente" style="edgeLabel;html=1;align=center;verticalAlign=middle;resizable=0;points=[];" parent="39" vertex="1" connectable="0">
                    <mxGeometry x="0.1071" y="1" relative="1" as="geometry">
                        <mxPoint as="offset"/>
                    </mxGeometry>
                </mxCell>
                <mxCell id="46" style="edgeStyle=none;html=1;exitX=0.5;exitY=1;exitDx=0;exitDy=0;exitPerimeter=0;entryX=0.5;entryY=0;entryDx=0;entryDy=0;" parent="1" source="41" target="2" edge="1">
                    <mxGeometry relative="1" as="geometry"/>
                </mxCell>
                <mxCell id="47" value="Hash Funktion" style="edgeLabel;html=1;align=center;verticalAlign=middle;resizable=0;points=[];" parent="46" vertex="1" connectable="0">
                    <mxGeometry x="-0.0286" y="2" relative="1" as="geometry">
                        <mxPoint as="offset"/>
                    </mxGeometry>
                </mxCell>
                <mxCell id="41" value="Identitäts-dokumente" style="whiteSpace=wrap;html=1;shape=mxgraph.basic.document;fillColor=none;" parent="1" vertex="1">
                    <mxGeometry x="659" y="500" width="86" height="110" as="geometry"/>
                </mxCell>
                <mxCell id="43" style="edgeStyle=none;html=1;exitX=1;exitY=0.5;exitDx=0;exitDy=0;entryX=0;entryY=0.5;entryDx=0;entryDy=0;entryPerimeter=0;" parent="1" source="42" target="41" edge="1">
                    <mxGeometry relative="1" as="geometry"/>
                </mxCell>
                <mxCell id="57" value="KYC&lt;br&gt;Dokumente" style="edgeLabel;html=1;align=center;verticalAlign=middle;resizable=0;points=[];" parent="43" vertex="1" connectable="0">
                    <mxGeometry x="-0.1019" y="-1" relative="1" as="geometry">
                        <mxPoint as="offset"/>
                    </mxGeometry>
                </mxCell>
                <mxCell id="42" value="" style="rounded=0;whiteSpace=wrap;html=1;fillColor=none;dashed=1;" parent="1" vertex="1">
                    <mxGeometry x="501" y="438.5" width="60" height="233" as="geometry"/>
                </mxCell>
            </root>
        </mxGraphModel>
    </diagram>
</mxfile>